<svg id="Calque_1" data-name="Calque 1" xmlns="http://www.w3.org/2000/svg" xmlns:xlink="http://www.w3.org/1999/xlink" viewBox="0 0 387.34 433.75">
  <defs>
    <style>
      .cls-1 {
        fill: #ffb16d;
      }

      .cls-2 {
        fill: #18161d;
      }

      .cls-3 {
        fill: url(#Dégradé_sans_nom_11);
      }
    </style>
    <linearGradient id="Dégradé_sans_nom_11" data-name="Dégradé sans nom 11" x1="0" y1="214.57" x2="387.34" y2="214.57" gradientUnits="userSpaceOnUse">
      <stop offset="0" stop-color="#ffb16d"/>
      <stop offset="1" stop-color="#7d2cff"/>
    </linearGradient>
  </defs>
  <g>
    <circle class="cls-3" cx="193.67" cy="214.57" r="193.67"/>
    <circle cx="193.67" cy="214.57" r="90.76"/>
    <g>
      <path class="cls-1" d="m181.98,178.8c-2.99,0-5.42,2.43-5.42,5.42v54.65h3.24v-24.26h4.37v35.72h3.24v-66.12c0-2.99-2.43-5.42-5.42-5.42h0Zm2.18,32.58h-4.37v-27.16c0-1.2.98-2.18,2.18-2.18s2.18.98,2.18,2.18v27.16h0Z"/>
      <path class="cls-1" d="m170.87,233.9c0,1.2-.98,2.18-2.18,2.18s-2.18-.98-2.18-2.18v-19.57h.01v-3.24h-21.18c-.68-2.01-2.58-3.46-4.82-3.46-2.8,0-5.08,2.28-5.08,5.08s2.28,5.08,5.08,5.08c2.24,0,4.14-1.45,4.82-3.46h17.93v19.63h0c.03,2.96,2.45,5.36,5.42,5.36s5.42-2.43,5.42-5.42v-39.73h-3.24v39.72h0Zm-30.35-19.34c-1.02,0-1.85-.83-1.85-1.85s.83-1.85,1.85-1.85,1.85.83,1.85,1.85-.83,1.85-1.85,1.85Z"/>
      <path class="cls-1" d="m246.84,207.63c-2.24,0-4.14,1.45-4.82,3.46h-21.18v3.24h.01v19.57c0,1.2-.98,2.18-2.18,2.18s-2.18-.98-2.18-2.18v-39.72h-.03c-.26-2.75-2.58-4.92-5.4-4.92s-5.14,2.16-5.4,4.92h-.03v.5h0s0,47.2,0,47.2c0,1.2-.98,2.18-2.18,2.18s-2.18-.98-2.18-2.18v-57.66c0-2.99-2.43-5.42-5.42-5.42s-5.42,2.43-5.42,5.42v66.12h3.24v-66.12c0-1.2.98-2.18,2.18-2.18s2.18.98,2.18,2.18h1.62-1.62v57.66c0,2.99,2.43,5.42,5.42,5.42s5.42-2.43,5.42-5.42h-1.62,1.62v-47.2c0-1.2.97-2.18,2.18-2.18s2.18.98,2.18,2.18v39.22c0,2.99,2.43,5.42,5.42,5.42s5.39-2.4,5.42-5.36h0v-19.63h17.93c.68,2.01,2.58,3.46,4.82,3.46,2.8,0,5.08-2.28,5.08-5.08s-2.28-5.08-5.08-5.08h0Zm0,6.93c-1.02,0-1.85-.83-1.85-1.85s.83-1.85,1.85-1.85,1.85.83,1.85,1.85-.83,1.85-1.85,1.85Z"/>
    </g>
  </g>
  <path class="cls-2" d="m221.92,1c-5.82,36.18-16.62,71.05-28.69,105.49-4.04,11.4-8.32,22.7-13.35,33.71,0,0-.15-8.97-.15-8.97,1.75,5.31,3.26,10.72,4.65,16.17,3.87,15.87,7.9,33.52,14.15,48.45,4.22,10.31,9.08,20.36,14.57,30.13,6.27,11.07,13.07,21.97,19.4,33.04-5.64,10.18-11.76,20.41-18.21,30.01-15.2,23.31-30.56,46.56-48.79,67.65,0,0,.53-16.04.53-16.04,12.46,21.87,24.4,44.72,34.56,67.75,3.41,7.81,6.72,15.68,9.6,23.83,0,0-2.35,1.52-2.35,1.52-24.25-23.68-45.37-50.58-65.43-77.81,0,0-5.28-7.15-5.28-7.15,11.86-18.58,24.62-36.79,38.78-53.66,11.96-14.24,23.48-28.78,36.38-42.23,0,0-1.24,10.25-1.24,10.25-5.88-21.58-11.1-43.55-20.29-64-6.29-14.88-16.2-30.13-24.81-43.95-3.64-5.92-7.05-12.02-10.19-18.19,0,0,1.71-5.4,1.71-5.4,11.43-34.49,26.55-67.64,43.3-99.88,5.74-10.74,11.7-21.4,18.55-31.72,0,0,2.61,1,2.61,1h0Z"/>
</svg>