<svg width="151" height="151" viewBox="0 0 151 151" fill="none" xmlns="http://www.w3.org/2000/svg">
<path d="M76.1292 116.71L75.5 117.34L74.8079 116.71C44.9225 89.5933 25.1667 71.6621 25.1667 53.4792C25.1667 40.8958 34.6042 31.4583 47.1875 31.4583C56.8767 31.4583 66.3142 37.75 69.6487 46.3067H81.3512C84.6858 37.75 94.1233 31.4583 103.812 31.4583C116.396 31.4583 125.833 40.8958 125.833 53.4792C125.833 71.6621 106.078 89.5933 76.1292 116.71ZM103.812 18.875C92.865 18.875 82.3579 23.9713 75.5 31.9617C68.6421 23.9713 58.135 18.875 47.1875 18.875C27.8092 18.875 12.5833 34.0379 12.5833 53.4792C12.5833 77.1988 33.975 96.64 66.3771 126.022L75.5 134.327L84.6229 126.022C117.025 96.64 138.417 77.1988 138.417 53.4792C138.417 34.0379 123.191 18.875 103.812 18.875Z" fill="#7D2CFF"/>
</svg>
