<svg width="49" height="49" viewBox="0 0 49 49" fill="none" xmlns="http://www.w3.org/2000/svg">
<path d="M8.16669 24.5L24.5 8.16667L40.8334 24.5M12.25 21.4375V38.7917C12.25 39.3332 12.4651 39.8525 12.848 40.2353C13.2309 40.6182 13.7502 40.8333 14.2917 40.8333H20.4167V34.7083C20.4167 34.1669 20.6318 33.6475 21.0147 33.2647C21.3976 32.8818 21.9169 32.6667 22.4584 32.6667H26.5417C27.0832 32.6667 27.6025 32.8818 27.9854 33.2647C28.3682 33.6475 28.5834 34.1669 28.5834 34.7083V40.8333H34.7084C35.2498 40.8333 35.7691 40.6182 36.152 40.2353C36.5349 39.8525 36.75 39.3332 36.75 38.7917V21.4375" stroke="#F5F1FC" stroke-width="2" stroke-linecap="round" stroke-linejoin="round"/>
</svg>
