<svg width="52" height="52" viewBox="0 0 52 52" fill="none" xmlns="http://www.w3.org/2000/svg">
<path d="M45.0022 43.3777C45.0022 43.8087 44.831 44.222 44.5262 44.5267C44.2215 44.8315 43.8082 45.0027 43.3772 45.0027C42.9462 45.0027 42.5329 44.8315 42.2281 44.5267C41.9234 44.222 41.7522 43.8087 41.7522 43.3777L41.7522 7.62769C41.7522 7.19671 41.9234 6.78339 42.2281 6.47864C42.5329 6.17389 42.9462 6.00269 43.3772 6.00269C43.8082 6.00269 44.2215 6.17389 44.5262 6.47864C44.831 6.78339 45.0022 7.19671 45.0022 7.62769L45.0022 43.3777ZM6.0022 41.2045C6.0022 44.2552 9.4212 46.0579 11.9389 44.3332L34.6824 28.7462C35.1886 28.3992 35.603 27.9345 35.89 27.3921C36.1771 26.8496 36.3281 26.2456 36.3303 25.6319C36.3324 25.0182 36.1855 24.4131 35.9023 23.8687C35.619 23.3242 35.2078 22.8567 34.704 22.5062L11.9562 6.68519C9.44286 4.93669 6.00003 6.73719 6.00003 9.79869L6.0022 41.2045Z" fill="#F0E7E5"/>
</svg>
