<svg width="10" height="10" viewBox="0 0 10 10" fill="none" xmlns="http://www.w3.org/2000/svg">
<path d="M1.8125 0.5C1.4644 0.5 1.13056 0.638281 0.884422 0.884422C0.638281 1.13056 0.5 1.4644 0.5 1.8125V8.1875C0.5 8.912 1.088 9.5 1.8125 9.5H2.9375C3.2856 9.5 3.61944 9.36172 3.86558 9.11558C4.11172 8.86944 4.25 8.5356 4.25 8.1875V1.8125C4.25 1.4644 4.11172 1.13056 3.86558 0.884422C3.61944 0.638281 3.2856 0.5 2.9375 0.5H1.8125ZM7.0625 0.5C6.7144 0.5 6.38056 0.638281 6.13442 0.884422C5.88828 1.13056 5.75 1.4644 5.75 1.8125V8.1875C5.75 8.912 6.338 9.5 7.0625 9.5H8.1875C8.5356 9.5 8.86944 9.36172 9.11558 9.11558C9.36172 8.86944 9.5 8.5356 9.5 8.1875V1.8125C9.5 1.4644 9.36172 1.13056 9.11558 0.884422C8.86944 0.638281 8.5356 0.5 8.1875 0.5H7.0625Z" fill="#F0E7E5"/>
</svg>
