<svg width="52" height="52" viewBox="0 0 52 52" fill="none" xmlns="http://www.w3.org/2000/svg">
<path d="M6.5 8.12499C6.5 7.69401 6.6712 7.28069 6.97595 6.97594C7.2807 6.67119 7.69402 6.49999 8.125 6.49999C8.55598 6.49999 8.9693 6.67119 9.27405 6.97594C9.5788 7.28069 9.75 7.69401 9.75 8.12499L9.75 43.875C9.75 44.306 9.5788 44.7193 9.27405 45.024C8.9693 45.3288 8.55598 45.5 8.125 45.5C7.69402 45.5 7.2807 45.3288 6.97595 45.024C6.6712 44.7193 6.5 44.306 6.5 43.875L6.5 8.12499ZM45.5 10.2982C45.5 7.24749 42.081 5.44482 39.5633 7.16949L16.8198 22.7565C16.3136 23.1035 15.8992 23.5682 15.6122 24.1106C15.3251 24.6531 15.1741 25.2571 15.1719 25.8708C15.1698 26.4845 15.3167 27.0896 15.5999 27.634C15.8832 28.1785 16.2944 28.646 16.7982 28.9965L39.546 44.8175C42.0593 46.566 45.5022 44.7655 45.5022 41.704L45.5 10.2982Z" fill="#F0E7E5"/>
</svg>
