<svg width="25" height="20" viewBox="0 0 43 38" fill="none" xmlns="http://www.w3.org/2000/svg">
<path d="M15.9753 10.6637C15.0158 12.1204 13.9204 14.2817 12.6891 17.1475C12.3373 16.435 12.0415 15.861 11.8016 15.4256C11.5617 14.9902 11.2379 14.4875 10.8301 13.9175C10.4223 13.3475 10.0146 12.9002 9.60678 12.5756C9.199 12.251 8.69528 11.974 8.0956 11.7444C7.49593 11.5148 6.84428 11.4 6.14066 11.4H0.767583C0.543705 11.4 0.359805 11.3287 0.215883 11.1862C0.0719609 11.0437 0 10.8617 0 10.64V6.08C0 5.85833 0.0719609 5.67625 0.215883 5.53375C0.359805 5.39125 0.543705 5.32 0.767583 5.32H6.14066C10.1385 5.32 13.4167 7.10125 15.9753 10.6637ZM42.9846 29.64C42.9846 29.8617 42.9127 30.0437 42.7688 30.1862L35.0929 37.7863C34.949 37.9288 34.7651 38 34.5412 38C34.3334 38 34.1534 37.9248 34.0015 37.7744C33.8496 37.624 33.7737 37.4458 33.7737 37.24V32.68C33.2619 32.68 32.5823 32.684 31.7348 32.6919C30.8872 32.6998 30.2396 32.7077 29.7918 32.7156C29.3441 32.7235 28.7604 32.7156 28.0408 32.6919C27.3212 32.6681 26.7535 32.6285 26.3377 32.5731C25.9219 32.5177 25.4102 32.4346 24.8025 32.3237C24.1949 32.2129 23.6911 32.0665 23.2913 31.8844C22.8916 31.7023 22.4278 31.4767 21.9001 31.2075C21.3724 30.9383 20.9006 30.6217 20.4849 30.2575C20.0691 29.8933 19.6293 29.4698 19.1656 28.9869C18.7018 28.504 18.2541 27.9538 17.8223 27.3363C18.7658 25.8638 19.8532 23.7025 21.0845 20.8525C21.4364 21.565 21.7322 22.139 21.9721 22.5744C22.2119 23.0098 22.5358 23.5125 22.9435 24.0825C23.3513 24.6525 23.7591 25.0998 24.1669 25.4244C24.5746 25.749 25.0784 26.026 25.6781 26.2556C26.2777 26.4852 26.9294 26.6 27.633 26.6H33.7737V22.04C33.7737 21.8183 33.8456 21.6362 33.9895 21.4937C34.1335 21.3512 34.3174 21.28 34.5412 21.28C34.7331 21.28 34.925 21.3592 35.1169 21.5175L42.7688 29.0938C42.9127 29.2362 42.9846 29.4183 42.9846 29.64ZM42.9846 8.36C42.9846 8.58167 42.9127 8.76375 42.7688 8.90625L35.0929 16.5063C34.949 16.6488 34.7651 16.72 34.5412 16.72C34.3334 16.72 34.1534 16.6448 34.0015 16.4944C33.8496 16.344 33.7737 16.1658 33.7737 15.96V11.4H27.633C26.8654 11.4 26.1698 11.5187 25.5461 11.7562C24.9225 11.9937 24.3708 12.35 23.891 12.825C23.4113 13.3 23.0035 13.7869 22.6677 14.2856C22.3319 14.7844 21.9721 15.3979 21.5883 16.1262C21.0765 17.1079 20.4529 18.4617 19.7173 20.1875C19.2535 21.2325 18.8578 22.1112 18.5299 22.8237C18.2021 23.5362 17.7703 24.3675 17.2346 25.3175C16.6989 26.2675 16.1872 27.0592 15.6995 27.6925C15.2117 28.3258 14.6201 28.9829 13.9244 29.6637C13.2288 30.3446 12.5092 30.8869 11.7656 31.2906C11.022 31.6944 10.1705 32.0269 9.211 32.2881C8.25152 32.5494 7.22807 32.68 6.14066 32.68H0.767583C0.543705 32.68 0.359805 32.6088 0.215883 32.4663C0.0719609 32.3237 0 32.1417 0 31.92V27.36C0 27.1383 0.0719609 26.9562 0.215883 26.8137C0.359805 26.6712 0.543705 26.6 0.767583 26.6H6.14066C6.90825 26.6 7.60387 26.4812 8.22753 26.2437C8.85119 26.0063 9.40289 25.65 9.88263 25.175C10.3624 24.7 10.7701 24.2131 11.106 23.7144C11.4418 23.2156 11.8016 22.6021 12.1854 21.8737C12.6971 20.8921 13.3208 19.5383 14.0564 17.8125C14.5201 16.7675 14.9159 15.8887 15.2437 15.1762C15.5715 14.4637 16.0033 13.6325 16.539 12.6825C17.0747 11.7325 17.5864 10.9408 18.0742 10.3075C18.5619 9.67417 19.1536 9.01708 19.8492 8.33625C20.5448 7.65542 21.2644 7.11312 22.008 6.70937C22.7516 6.30562 23.6032 5.97312 24.5627 5.71187C25.5221 5.45062 26.5456 5.32 27.633 5.32H33.7737V0.76C33.7737 0.538333 33.8456 0.35625 33.9895 0.21375C34.1335 0.07125 34.3174 0 34.5412 0C34.7331 0 34.925 0.0791667 35.1169 0.2375L42.7688 7.81375C42.9127 7.95625 42.9846 8.13833 42.9846 8.36Z" fill="#F0E7E5"/>
</svg>
