<svg width="31" height="31" viewBox="0 0 31 31" fill="none" xmlns="http://www.w3.org/2000/svg">
<path d="M29 29L20 20M2 12.5C2 13.8789 2.27159 15.2443 2.79927 16.5182C3.32694 17.7921 4.10036 18.9496 5.07538 19.9246C6.05039 20.8996 7.20791 21.6731 8.48182 22.2007C9.75574 22.7284 11.1211 23 12.5 23C13.8789 23 15.2443 22.7284 16.5182 22.2007C17.7921 21.6731 18.9496 20.8996 19.9246 19.9246C20.8996 18.9496 21.6731 17.7921 22.2007 16.5182C22.7284 15.2443 23 13.8789 23 12.5C23 11.1211 22.7284 9.75574 22.2007 8.48182C21.6731 7.20791 20.8996 6.05039 19.9246 5.07538C18.9496 4.10036 17.7921 3.32694 16.5182 2.79926C15.2443 2.27159 13.8789 2 12.5 2C11.1211 2 9.75574 2.27159 8.48182 2.79926C7.20791 3.32694 6.05039 4.10036 5.07538 5.07538C4.10036 6.05039 3.32694 7.20791 2.79927 8.48182C2.27159 9.75574 2 11.1211 2 12.5Z" stroke="#27193F" stroke-width="4" stroke-linecap="round" stroke-linejoin="round"/>
</svg>
