<svg width="25" height="25" viewBox="0 0 37 37" fill="none" xmlns="http://www.w3.org/2000/svg">
<path d="M22.6686 5.30795C22.963 5.65483 23.1249 6.09575 23.1249 6.55208V30.451C23.125 30.8186 23.0199 31.1786 22.8221 31.4885C22.6242 31.7983 22.3418 32.0451 22.0083 32.1998C21.6748 32.3544 21.304 32.4103 20.9396 32.3611C20.5753 32.3118 20.2327 32.1594 19.9522 31.9217L12.2947 25.4375H6.552C5.63203 25.4375 4.74974 25.072 4.09923 24.4215C3.44871 23.771 3.08325 22.8887 3.08325 21.9687V15.0312C3.08325 14.1113 3.44871 13.229 4.09923 12.5785C4.74974 11.928 5.63203 11.5625 6.552 11.5625H12.2947L19.9537 5.08133C20.3439 4.75154 20.849 4.59016 21.3581 4.63266C21.8671 4.67516 22.3385 4.91805 22.6686 5.30795ZM26.3686 13.32C26.6303 13.1608 26.9446 13.1119 27.2423 13.1842C27.54 13.2564 27.7969 13.4439 27.9565 13.7054C28.8414 15.1546 29.2854 16.7764 29.2854 18.5462C29.2854 20.3161 28.8414 21.9395 27.9565 23.3886C27.8796 23.5226 27.7767 23.6398 27.6538 23.7334C27.5309 23.8269 27.3904 23.8949 27.2408 23.9332C27.0912 23.9716 26.9354 23.9796 26.7826 23.9568C26.6298 23.9339 26.4832 23.8807 26.3513 23.8003C26.2195 23.7198 26.1051 23.6138 26.0149 23.4883C25.9247 23.3629 25.8606 23.2207 25.8262 23.0701C25.7919 22.9195 25.7881 22.7636 25.8151 22.6115C25.842 22.4594 25.8992 22.3142 25.9832 22.1846C26.643 21.1023 26.9729 19.8983 26.9729 18.5462C26.9729 17.1942 26.643 15.9917 25.9832 14.9095C25.8239 14.6477 25.7751 14.3335 25.8473 14.0358C25.9196 13.738 26.1071 13.4796 26.3686 13.32Z" fill="#F0E7E5"/>
</svg>
